<?xml version="1.0" encoding="utf-8"?>
<!-- Generator: Adobe Illustrator 16.0.0, SVG Export Plug-In . SVG Version: 6.00 Build 0)  -->
<!DOCTYPE svg PUBLIC "-//W3C//DTD SVG 1.1//EN" "http://www.w3.org/Graphics/SVG/1.1/DTD/svg11.dtd">
<svg version="1.1" xmlns="http://www.w3.org/2000/svg" xmlns:xlink="http://www.w3.org/1999/xlink" x="0px" y="0px" width="1024px"
	 height="768px" viewBox="0 0 1024 768" enable-background="new 0 0 1024 768" xml:space="preserve">
<g id="Layer_1" display="none">
	
		<image display="inline" overflow="visible" width="475" height="382" xlink:href="journey-so-far.jpg"  transform="matrix(1 0 0 1 159.5 150.5)">
	</image>
</g>
<g id="Layer_2">
	<g>
		<path d="M500.291,350.875c-16.154,0-29.25,13.096-29.25,29.25c0,10.046,5.066,18.908,12.783,24.175
			c3.814-3.486,7.534-7.163,11.222-10.926c-3.187-1.771-5.369-5.129-5.47-9.01h14.146c6.57-6.908,13.18-13.909,20.167-20.517
			C518.102,355.167,509.98,350.875,500.291,350.875z M489.576,373.708c0.15-5.736,4.837-10.344,10.611-10.344
			s10.461,4.607,10.611,10.344H489.576z"/>
		<polygon fill="#070707" points="547.583,352.083 566.749,352.083 546.583,373.25 567.562,406.833 546.583,406.833 
			534.156,385.281 529.5,389.688 529.499,406.833 512.499,406.833 512.499,389.375 		"/>
	</g>
</g>
</svg>
