<?xml version="1.0" encoding="UTF-8" standalone="no"?>
<svg width="178px" height="48px" viewBox="0 0 178 48" version="1.1" xmlns="http://www.w3.org/2000/svg" xmlns:xlink="http://www.w3.org/1999/xlink" xmlns:sketch="http://www.bohemiancoding.com/sketch/ns">
    <!-- Generator: Sketch 3.5.1 (25234) - http://www.bohemiancoding.com/sketch -->
    <title>Group</title>
    <desc>Created with Sketch.</desc>
    <defs></defs>
    <g id="Page-5" stroke="none" stroke-width="1" fill="none" fill-rule="evenodd" sketch:type="MSPage">
        <g id="Artboard-7" sketch:type="MSArtboardGroup" transform="translate(-96.000000, -44.000000)" fill="#039EB9">
            <g id="Group" sketch:type="MSLayerGroup" transform="translate(96.000000, 43.000000)">
                <g transform="translate(0.179123, 0.719543)" id="Shape" sketch:type="MSShapeGroup">
                    <path d="M169.605085,46.9475876 C169.4299,46.9619784 169.302558,46.9562221 169.226201,46.9286396 C169.14477,46.9022563 169.263171,46.9427906 169.577781,47.0485635 C169.568115,47.0826218 169.240941,47.0264975 168.599157,46.8813896 C168.618246,46.8137525 168.582242,46.7837716 168.495495,46.7904873 C168.405365,46.7984023 168.441127,46.8283832 168.599157,46.8813896 C168.42228,46.8955406 168.178711,46.8494898 167.868693,46.7434772 C167.831481,46.8782716 168.104287,46.9629378 168.694603,46.9969962 C169.282744,47.032014 169.805885,47.1461815 170.264025,47.3394987 C169.45358,47.1735241 168.718283,47.0610355 168.052577,47.0001142 C167.385905,46.9399124 166.643118,46.8446929 165.827356,46.7161345 C165.476018,46.7463553 165.63139,46.7979226 166.295646,46.8739543 C165.788936,46.8504492 165.379122,46.7868896 165.068621,46.6811168 C165.415609,46.652335 165.343119,46.6084429 164.847283,46.5520787 C164.495461,46.5820596 164.571577,46.6252322 165.068621,46.6811168 C164.553696,46.6931091 164.176261,46.6674454 163.93825,46.6055647 C163.699273,46.5446434 163.484942,46.5381675 163.303715,46.5873363 C160.342714,46.1867906 157.407809,45.8303769 154.511083,45.5168959 C151.610491,45.2043744 148.592947,44.8493997 145.455793,44.456769 C145.107597,44.494665 144.768582,44.4970635 144.438025,44.4673223 C140.119757,44.0408731 135.466099,43.6218591 130.469319,43.2265901 C125.473505,42.8303617 120.637654,42.4624353 115.973123,42.1129772 C112.620189,42.0151193 109.282961,41.8417094 105.94815,41.5910685 C102.608989,41.3413871 99.3437684,41.2411307 96.1645703,41.2898198 C87.9760269,40.9039048 79.988041,40.7285761 72.2194601,40.7472843 C64.4525707,40.7669518 56.5696962,40.8549759 48.5715616,41.023349 C44.2470113,41.2149873 39.8514201,41.4121421 35.3717398,41.6179315 C30.8925428,41.8249201 26.3198328,41.9712272 21.6511936,42.0626091 C21.477941,42.0355063 21.3051716,42.0079239 21.1324022,41.9803414 C19.7478309,41.7632792 19.1744299,41.4428426 19.4259724,41.0163934 C22.5404122,40.6379137 25.7357999,40.3927893 28.9932879,40.2834188 C32.251984,40.1745279 35.4594535,40.0325381 38.6265698,39.8557703 C39.6208999,39.764868 40.7036685,39.7154594 41.8794668,39.709703 C43.0516405,39.7046662 44.137792,39.642066 45.129464,39.5226218 C51.3233065,39.389986 57.7708662,39.2458376 64.4786673,39.1057665 C64.9865851,39.177481 65.2794473,39.2050635 65.3649863,39.1880343 C65.4466591,39.1719645 65.7424209,39.1817982 66.2479223,39.2192145 C72.7865786,39.0913756 79.510086,39.1446218 86.4008052,39.3911853 C93.2869333,39.6367893 100.170645,39.881434 107.06523,40.1253591 C107.395063,40.2119442 107.726103,40.2615926 108.064635,40.2793414 C110.41164,40.3999848 113.264872,40.5470114 116.62433,40.7331332 C119.979922,40.9192551 122.906128,41.1914822 125.395457,41.5378223 C125.476888,41.5606079 125.557594,41.5838731 125.638784,41.6061789 C125.470605,41.5949061 125.213747,41.6109759 124.872799,41.6563071 C124.788227,41.6507906 124.705346,41.6445546 124.621257,41.6392779 C124.460569,41.5594086 123.963525,41.4896129 123.127708,41.4339683 C123.119009,41.5028046 123.279213,41.5558109 123.613637,41.5956256 C123.943952,41.6363997 124.280067,41.6500711 124.621257,41.6395178 C124.702688,41.6623033 124.784602,41.6850888 124.865309,41.7076345 C124.856368,41.7764708 124.893097,41.7956586 124.983468,41.7678363 C125.070699,41.7395343 125.030587,41.7193871 124.865309,41.7076345 C124.868208,41.6903655 124.869416,41.673816 124.872799,41.656547 C125.364527,41.7599213 125.868337,41.7954188 126.378188,41.7623198 C128.208577,41.9618731 130.08391,42.135283 132.008778,42.2835089 C133.928814,42.4314949 135.890894,42.6070635 137.88922,42.8075761 C137.564945,42.7121168 137.366079,42.6526345 137.285614,42.6281701 C137.201283,42.604665 136.917362,42.5545368 136.421284,42.4792246 C136.410169,42.5480609 136.567232,42.5948312 136.90528,42.6231332 C134.565282,42.4295761 132.150618,42.1875698 129.657182,41.8983135 C128.975287,41.9167817 128.389804,41.891118 127.892518,41.8203629 C127.393782,41.7496079 126.890697,41.7306599 126.378188,41.7627995 C126.050531,41.6709378 125.845865,41.6390381 125.758152,41.6675799 C125.667055,41.695882 125.629118,41.6762145 125.638784,41.6068985 C125.643133,41.5737995 125.560494,41.5502944 125.395457,41.5385419 C128.08631,41.6236878 130.977237,41.8206028 134.06413,42.1343236 C137.146432,42.4482843 140.269088,42.7799937 143.428955,43.1325698 C143.50507,43.1738236 143.581668,43.2155571 143.659233,43.2568109 C143.32336,43.2268299 143.238063,43.2280292 143.404308,43.2601688 C143.562821,43.2920685 143.652226,43.2911091 143.659233,43.2568109 C143.990999,43.2867919 144.332672,43.2654454 144.689567,43.1939708 C148.662538,43.7290711 152.671995,44.2576954 156.725189,44.7839213 C160.774275,45.3091878 165.076353,46.0277716 169.605085,46.9475876 L169.605085,46.9475876 Z M85.0130926,39.6111256 C85.095007,39.6305533 85.2211408,39.6252766 85.3905272,39.5950558 C85.0534457,39.5859416 84.9253789,39.5914581 85.0130926,39.6111256 L85.0130926,39.6111256 Z M91.1832548,39.7701447 C90.84569,39.7591117 90.7183481,39.7641485 90.8043703,39.783816 C90.886768,39.8039632 91.0131434,39.7991662 91.1832548,39.7701447 C91.6846484,39.8900685 91.935466,39.8984632 91.9386073,39.7958084 C91.4350389,39.7449607 91.1834964,39.7363261 91.1832548,39.7701447 L91.1832548,39.7701447 Z M92.5673428,39.8437779 C92.6499822,39.8636853 92.7744244,39.8591282 92.9455024,39.831066 C92.6074543,39.8183541 92.4805957,39.8236307 92.5673428,39.8437779 L92.5673428,39.8437779 Z M96.9738076,39.9814505 C96.6384175,39.8991827 96.4731388,39.8929467 96.4704809,39.9613033 C96.1350908,39.8802348 95.8004256,39.8670431 95.4633441,39.9231675 C95.2954075,39.9164518 95.1274708,39.9102157 94.9600174,39.9035 C94.6226943,39.8915076 94.495594,39.8948655 94.5816163,39.9154924 C94.6625641,39.9368388 94.7896644,39.9322817 94.9600174,39.9035 C95.1274708,39.9102157 95.2954075,39.9164518 95.4633441,39.9231675 C95.7989758,39.9358794 96.1346075,39.9485914 96.4704809,39.9613033 C96.6355179,40.002797 96.8029713,40.009033 96.9738076,39.9814505 C97.4764094,40.0699543 97.6402382,40.0596409 97.4797923,39.9495508 C97.3157218,39.8399404 97.1446439,39.8507335 96.9738076,39.9814505 L96.9738076,39.9814505 Z M101.001871,40.1491041 C100.498061,40.1272779 99.9534148,40.0867437 99.3684152,40.0275013 C98.7802745,39.9692183 98.2370779,39.9634619 97.7294017,40.0119112 C99.4022442,40.1481447 100.495645,40.1963541 101.001871,40.1491041 C101.331704,40.2325711 101.708655,40.2671091 102.131517,40.2512792 C102.550271,40.2359289 102.928914,40.2359289 103.266721,40.2512792 C102.768468,40.1596574 102.348506,40.1150457 102.013116,40.1167246 C101.674826,40.1191231 101.337503,40.1294365 101.001871,40.1491041 L101.001871,40.1491041 Z M104.021348,40.286297 C104.189768,40.2942119 104.357463,40.3021269 104.526125,40.3107614 C104.19146,40.2258553 104.026423,40.2184201 104.021348,40.286297 L104.021348,40.286297 Z M104.776701,40.322514 C104.944879,40.3304289 105.112816,40.3383439 105.279786,40.3464987 C105.285585,40.2781421 105.115957,40.2702272 104.776701,40.322514 L104.776701,40.322514 Z M106.538707,40.4086193 C107.036476,40.5023997 107.371383,40.5196688 107.544877,40.459467 C108.54404,40.6129695 109.295043,40.670533 109.804894,40.6283198 C108.804281,40.506717 108.050137,40.4508325 107.544877,40.459467 C107.050732,40.3309086 106.711234,40.3136396 106.538707,40.4086193 L106.538707,40.4086193 Z M116.345,40.9737005 C115.172584,40.8866358 113.916321,40.8036485 112.575728,40.728816 C112.238163,40.7096282 111.947234,40.6854036 111.697624,40.6539835 C111.448257,40.6230431 111.233684,40.637434 111.062365,40.6964365 C111.390264,40.7837411 111.640357,40.8142018 111.812401,40.7892576 C111.979613,40.7645533 112.235022,40.7444061 112.575486,40.7290558 C113.909556,40.8732043 115.160986,40.9890508 116.333643,41.0765952 C117.502675,41.1646193 118.761596,41.2173858 120.111855,41.234415 C120.441446,41.2902995 121.024754,41.3449848 121.864921,41.4001497 C121.205739,41.2540825 120.622189,41.1986777 120.111855,41.234415 C118.770537,41.1480698 117.51524,41.062684 116.345,40.9737005 L116.345,40.9737005 Z M122.375013,41.3828807 C122.369697,41.4169391 122.53256,41.4450013 122.869399,41.4677868 C122.704846,41.4390051 122.539325,41.4111827 122.375013,41.3828807 L122.375013,41.3828807 Z M123.821685,41.9455635 C123.492819,41.8541815 123.243934,41.8206028 123.075273,41.8429086 C123.56386,41.979382 123.812503,42.0143997 123.821685,41.9455635 L123.821685,41.9455635 Z M145.145292,43.4685964 C144.806519,43.4554048 144.471129,43.433099 144.138638,43.4035977 C143.977226,43.3544289 143.810981,43.3393185 143.638211,43.3582665 C143.554364,43.3508312 143.471966,43.3429162 143.389327,43.3357208 C142.558342,43.2273096 141.730982,43.1198579 140.904831,43.0128858 C140.074088,42.9066332 139.239479,42.8353985 138.399795,42.7989416 C140.386281,43.0694898 142.044867,43.2498553 143.389327,43.335481 C143.545665,43.3841701 143.633137,43.3918452 143.638211,43.3580266 C143.957895,43.4563642 144.12559,43.4717145 144.138638,43.4033579 C144.789846,43.5316764 145.455552,43.6089074 146.129715,43.6367297 C146.448915,43.7365063 146.615885,43.7516168 146.631108,43.6835 C146.64464,43.6158629 146.475737,43.5997931 146.129715,43.6367297 C145.808339,43.538632 145.481407,43.4822678 145.145292,43.4685964 L145.145292,43.4685964 Z M142.858453,43.4438921 C143.016966,43.4923414 143.184903,43.5072119 143.358881,43.4885038 C143.037264,43.3908858 142.871985,43.3757754 142.858453,43.4438921 L142.858453,43.4438921 Z M147.359156,43.8549911 C147.536275,43.8029442 147.709527,43.8019848 147.869973,43.8513934 C148.026795,43.9015216 148.194973,43.9163921 148.369676,43.8986434 C148.04081,43.8334048 147.711219,43.7839962 147.38042,43.7535355 C147.045272,43.7223553 147.037539,43.755934 147.359156,43.8549911 L147.359156,43.8549911 Z M148.619527,43.922868 C149.415474,44.1718299 149.909619,44.2370685 150.108001,44.1173845 C149.28789,43.9693985 148.791088,43.9046396 148.619527,43.922868 L148.619527,43.922868 Z M150.34722,44.1926967 C150.512741,44.2085266 150.680677,44.2245964 150.846198,44.2413858 C150.679953,44.2245964 150.512741,44.2087665 150.34722,44.1926967 L150.34722,44.1926967 Z M155.305581,44.8438832 C154.830042,44.6915799 154.337347,44.6071536 153.830396,44.5901244 C153.187887,44.4212716 152.360769,44.3210152 151.3459,44.2895952 C151.830137,44.4076003 152.281271,44.4783553 152.703408,44.5028198 C153.119746,44.5270444 153.495489,44.5565457 153.830396,44.5901244 C154.315358,44.7086091 154.80612,44.7927957 155.305581,44.8438832 C155.644595,44.8446028 155.771937,44.8400457 155.689781,44.8318909 C155.604967,44.8230165 155.477142,44.8278135 155.305581,44.8438832 L155.305581,44.8438832 Z M156.326249,44.845802 C155.957513,44.9470178 156.275505,45.0571079 157.268386,45.178231 C158.261749,45.2998338 158.92528,45.362434 159.267919,45.3638731 C158.610429,45.2592995 158.076898,45.1681574 157.673608,45.0909264 C157.265003,45.0129759 156.812903,44.9477373 156.312959,44.8961701 C156.319,44.8796206 156.322141,44.8623515 156.326249,44.845802 L156.326249,44.845802 Z M160.37026,45.5603084 C160.640651,45.504184 160.600056,45.4905127 160.252342,45.5219327 C160.058792,45.6051599 160.101079,45.6188312 160.37026,45.5603084 L160.37026,45.5603084 Z M161.733085,45.7353972 C161.243048,45.6476129 160.909832,45.6111561 160.736821,45.6267462 C161.226858,45.7145305 161.557657,45.7512272 161.733085,45.7353972 L161.733085,45.7353972 Z M163.696373,46.0577525 C163.362674,46.0205761 163.117898,45.9848388 162.957935,45.9491015 C162.794589,45.9140838 162.548363,45.8773871 162.21853,45.8411701 C163.021243,46.0332881 163.512972,46.107401 163.696373,46.0577525 C164.008566,46.1628058 164.135666,46.1771967 164.070666,46.0999657 C164.002525,46.0229746 163.878808,46.0090635 163.696373,46.0577525 L163.696373,46.0577525 Z M164.101837,46.4676523 C163.936075,46.4489442 163.76983,46.4307157 163.604551,46.4122475 C163.916744,46.5168211 164.083715,46.5360089 164.101837,46.4676523 L164.101837,46.4676523 Z M164.913491,46.2990393 C164.746762,46.2798515 164.625461,46.2582652 164.547413,46.2316421 C164.466948,46.2054987 164.345647,46.182953 164.181819,46.1637652 C164.652525,46.3213452 164.896335,46.3669162 164.913491,46.2990393 L164.913491,46.2990393 Z M166.128192,46.5415254 C166.273415,46.6278706 166.688545,46.6760799 167.372132,46.6851942 C166.893694,46.5604734 166.477597,46.5125038 166.128192,46.5415254 L166.128192,46.5415254 Z M167.508898,47.1188388 C167.165292,47.113802 166.921723,47.0679911 166.778192,46.9821256 C166.630069,46.8957805 166.873396,46.9403921 167.508898,47.1188388 L167.508898,47.1188388 Z M169.605085,46.9475876 C169.954249,46.9200051 170.398375,47.0077893 170.942055,47.2116599 C171.480902,47.4160102 171.280103,47.3749962 170.336033,47.0869391 C169.840197,47.0274569 169.595662,46.9818858 169.605085,46.9475876 L169.605085,46.9475876 Z"></path>
                    <path d="M152.308817,24.8177982 C152.349895,24.7825406 152.27378,24.8377056 152.14813,24.9271688 L152.249375,24.866967 C152.269189,24.8504175 152.289728,24.8345876 152.308817,24.8177982 L152.308817,24.8177982 Z"></path>
                    <path d="M143.4681,12.989948 C144.592913,11.342434 147.050104,7.92148604 147.050104,7.92148604 C147.88278,7.05443655 148.405679,6.20753426 147.607799,5.41483756 C145.77741,3.59847081 145.557039,5.2008934 144.077263,8.3822335 C142.597245,11.5630939 142.293751,14.711335 143.4681,12.989948 L143.4681,12.989948 Z"></path>
                    <path d="M143.715776,23.2357627 C143.744531,23.1681256 143.777393,23.1028871 143.805181,23.0350102 C143.825962,22.9844023 143.848917,22.9371523 143.872598,22.8901421 C143.882263,22.8249036 143.892653,22.7599048 143.902319,22.6949061 C142.340145,24.7149036 140.436783,27.1462398 139.38301,28.3831345 C137.386618,30.7264467 136.608068,30.6425 138.005688,26.9123883 C139.403066,23.1820368 142.480294,18.2051967 142.480294,18.2051967 C143.069401,17.5372208 143.372654,16.8339873 142.183324,16.2007893 C140.26498,15.1574518 140.435574,15.4762094 136.553459,23.0594746 C136.188347,23.7725419 135.879779,24.4299645 135.616155,25.0410964 C133.440227,27.4837056 130.524653,30.1321041 128.582387,29.4552538 C127.069507,28.8594721 127.922481,25.6930025 127.922481,25.6930025 C127.922481,25.6930025 130.937608,26.0777183 134.289334,21.3815 C135.9066,19.1036662 133.723424,18.020514 133.723424,18.020514 C130.166791,15.6193985 126.392928,18.037783 124.955439,26.112736 C123.666555,33.354698 130.658519,33.1378756 134.418851,29.6653604 C134.453646,31.1869543 135.207791,31.8858706 136.179649,32.1401091 C136.180857,32.1365114 136.183756,32.1338731 136.184723,32.1302754 C138.099443,32.5739937 139.468791,30.6732005 141.466875,27.8501929 C142.533454,26.3429898 143.362263,24.2198579 143.715776,23.2357627 L143.715776,23.2357627 Z M130.210527,21.080731 C132.525637,18.2001599 133.346231,19.124533 131.789857,21.5664226 C130.233483,24.0083122 128.011403,25.3445038 128.011403,25.3445038 C128.011403,25.3445038 127.895418,23.961302 130.210527,21.080731 L130.210527,21.080731 Z"></path>
                    <path d="M126.416125,33.1460305 C125.091721,32.2276536 123.812986,31.2461967 122.658935,30.2719353 C116.498438,25.071797 117.428252,24.8636091 118.580611,23.3626421 C118.626522,23.3098756 118.671466,23.2585482 118.721726,23.2014645 C122.55189,18.8705343 126.844786,15.1394632 131.55837,11.9782703 C131.55692,11.9758718 131.556195,11.9734734 131.554745,11.9715546 C132.528053,11.3150914 133.832643,10.4732259 134.612159,9.97386294 C136.383106,8.83938325 138.43894,7.64038452 141.20325,9.27470685 C141.034589,8.39686421 141.019366,7.88167132 140.833548,7.42692005 C139.5913,4.38469162 136.408477,3.63924492 133.358071,5.69306091 C133.196175,5.80195178 133.038146,5.91396066 132.878183,6.02405076 C132.877458,6.02309137 132.877216,6.02189213 132.876491,6.02093274 C132.746975,6.10991624 132.61915,6.20177792 132.489875,6.29172081 C132.38573,6.36439467 132.281585,6.43658883 132.178165,6.50998223 C129.313576,8.52518274 126.58382,10.7248261 123.933562,13.0319213 C119.906948,16.7656307 117.87721,19.2710799 117.87721,19.2710799 C117.87721,19.2710799 117.319516,18.4282551 123.43241,9.06795812 C124.790885,6.76374112 126.469043,4.67922462 129.060101,3.22286929 C127.686161,0.683361675 124.013543,0.269864213 122.218433,2.46686929 C121.767542,3.01803934 121.350237,3.60158883 120.972078,4.20384645 C118.519961,8.10520939 116.549907,12.2219556 114.867157,16.4641421 L114.867157,16.4607843 C114.81738,16.5862246 114.771469,16.7051891 114.722417,16.8289505 C114.66225,16.9831726 114.601116,17.136915 114.541432,17.2916168 C108.082033,33.7857043 106.647926,44.7285165 106.647926,44.7285165 C106.703019,46.099486 108.158631,46.4818033 109.93586,46.4818033 C111.712847,46.4818033 110.708127,47.113802 111.92597,41.3752056 C112.534891,38.5047081 113.497325,34.9331358 114.307046,32.0799074 C114.419406,32.1530609 114.493589,32.2010305 114.493589,32.2010305 C115.407696,27.5484645 116.093215,27.4498871 116.110855,27.4482081 C117.508716,28.9160761 118.673882,30.2412348 119.970015,31.4179277 C121.5752,32.8733236 123.214938,34.2829086 124.918468,35.598953 C124.917502,35.5994327 124.916535,35.6003921 124.915569,35.6013515 C126.897463,37.167797 129.01419,38.5673084 131.333649,39.7125812 C132.199912,40.1395102 132.96928,40.3834353 133.652383,40.4537107 C133.681379,40.4582678 133.711584,40.4645038 133.740097,40.4671421 C133.7761,40.4702602 133.809929,40.4683414 133.845933,40.4707398 C133.890152,40.473618 133.933163,40.4743376 133.976658,40.4750571 C134.068963,40.4774556 134.159576,40.4769759 134.24729,40.4721789 C134.263479,40.4709797 134.279669,40.4697805 134.295617,40.4683414 C138.100409,40.2073871 137.693012,33.616132 137.693012,33.616132 C136.079128,37.4184378 132.337644,36.9584099 126.416125,33.1460305 L126.416125,33.1460305 Z"></path>
                    <path d="M175.424393,17.8288756 C174.909709,17.684967 174.362163,17.6127728 173.782721,17.6127728 C172.88577,18.2406942 172.068076,18.954481 171.330846,19.7522145 C170.592166,20.5509074 169.959323,21.4345063 169.432074,22.4025317 C169.537428,21.800514 169.629491,21.2119277 169.708989,20.6360533 C169.787762,20.0604188 169.892873,19.4715926 170.025773,18.869335 C169.603394,18.529231 169.128822,18.240934 168.601332,18.0056434 C168.073358,17.7698731 167.506965,17.6396358 166.900943,17.6127728 C166.586575,19.3701371 166.313769,21.1505266 166.066575,22.945547 C164.030313,25.5342234 159.824164,30.3410114 157.282401,29.4554937 C155.769038,28.8597119 156.758776,25.7229835 156.758776,25.7229835 C156.758776,25.7229835 159.63738,26.0779581 162.988864,21.3817398 C164.606372,19.1039061 162.423196,18.0207538 162.423196,18.0207538 C158.86608,15.6196383 155.092217,18.0380228 153.65521,26.1129759 C153.585619,26.503448 153.545266,26.865618 153.519411,27.2131574 C153.249263,27.4849048 152.962683,27.7472982 152.648557,27.9921827 C151.866141,28.6011561 150.8967,29.0479924 149.740232,29.333651 C149.400976,28.6037944 148.996961,27.9185495 148.527222,27.2788756 C148.057241,26.6396815 147.528543,26.0988249 146.94161,25.6567855 C147.591851,25.3636916 148.33343,24.9753782 149.167314,24.492085 C150.000715,24.0087919 150.809711,23.4559429 151.593335,22.8337779 C152.376717,22.2116129 153.081809,21.5203718 153.709337,20.7607741 C154.335656,20.0004569 154.767458,19.1967272 155.00402,18.3500647 C154.95086,18.1318033 154.859763,17.8890774 154.731938,17.6211675 C154.604596,17.3546967 154.448016,17.1035761 154.262924,16.8692449 C154.077347,16.6349137 153.875099,16.4382386 153.653519,16.2787398 C153.432906,16.1199607 153.203835,16.0257005 152.966791,15.9976383 C152.255899,15.9124924 151.535825,15.9523071 150.808261,16.1166028 C150.080213,16.2813782 149.341775,16.4778135 148.592705,16.7059086 C147.843394,16.9342437 147.091182,17.1292398 146.337038,17.2906574 C145.582894,17.4525546 144.836723,17.4882919 144.099977,17.4000279 C144.055274,17.7662754 144.093694,18.1090178 144.214995,18.4280152 C144.336538,18.7479721 144.488043,19.0377081 144.670236,19.2984226 C144.851946,19.5584175 145.059028,19.7761992 145.292206,19.9493693 C145.524659,20.1234987 145.741648,20.2621307 145.942447,20.3655051 C146.574807,20.441297 147.190253,20.3758185 147.789992,20.1693096 C148.38949,19.9632805 148.988021,19.7102411 149.585344,19.4104315 C150.182908,19.1111015 150.782889,18.7921041 151.385528,18.4529594 C151.987684,18.1142944 152.593947,17.8490228 153.205285,17.6569048 C152.899616,18.6285279 152.381066,19.5406688 151.649394,20.394047 C150.917963,21.2481447 150.152704,21.9916726 149.354099,22.6243909 C148.555977,23.2585482 147.799416,23.7643871 147.085866,24.1426269 C146.371592,24.5211066 145.893395,24.7223388 145.65031,24.7458439 C145.334251,24.9206929 145.143842,25.1698947 145.078359,25.4929695 C145.011909,25.816764 145.137318,26.103382 145.454585,26.3530635 C145.912968,26.7536091 146.290886,27.268802 146.588339,27.9012805 C146.885067,28.5337589 147.109305,29.217085 147.260327,29.9512589 C146.928562,30.0436003 146.602354,30.1371409 146.285086,30.2318807 C145.965403,30.3261409 145.65176,30.4343122 145.343674,30.5566345 C144.390906,30.9200038 143.520051,31.3783528 142.731112,31.9336003 C141.942172,32.4888477 141.387135,33.2107893 141.064793,34.1006244 C140.833548,34.6824949 140.716355,35.2648452 140.711764,35.8481548 C140.708139,36.4309848 140.815425,36.9742398 141.034347,37.4779201 C141.253752,37.9816003 141.592525,38.4329937 142.051874,38.8328198 C142.510015,39.2321662 143.088974,39.5274188 143.7873,39.7171383 C144.814251,39.8408997 145.778377,39.7109023 146.680402,39.3288249 C147.581461,38.9455482 148.341163,38.4070901 148.960716,37.7124911 C149.857909,36.7068096 150.389023,35.5773668 150.55551,34.3236827 C150.721031,33.0709581 150.612536,31.8251891 150.229061,30.5854162 C151.366197,30.2445926 152.346512,29.7593807 153.171698,29.1285812 C153.306047,29.0256865 153.431214,28.9167957 153.558798,28.8091041 C154.289262,33.803453 160.884219,32.3456586 163.661336,28.3061434 C164.584142,26.9634759 165.298416,25.7105114 165.840888,24.6451079 C165.612059,26.5149607 165.435907,28.3843338 165.31968,30.2541865 C165.661836,30.6468173 166.116836,30.9478261 166.683954,31.1572132 C167.250831,31.3668401 167.797894,31.4848452 168.325384,31.5105089 C168.430254,30.4376701 168.562912,29.3648312 168.721183,28.2912728 C168.878971,27.2186739 169.122781,26.1846904 169.452613,25.1895622 C169.781963,24.1951536 170.21739,23.2532716 170.757928,22.3629569 C171.297742,21.4736015 172.016849,20.6751485 172.913317,19.9680774 C172.701886,20.4657614 172.51776,20.9497741 172.35973,21.4205952 C172.2017,21.8918959 172.069043,22.2850063 171.964173,22.5987272 C172.095622,23.2796548 172.425213,23.8159543 172.952945,24.2088249 C173.480194,24.6009759 174.046829,24.8233147 174.653334,24.8758414 C174.653334,24.3788769 174.732832,23.8221904 174.891345,23.2072208 C175.049133,22.592731 175.240025,21.9842373 175.464504,21.3817398 C175.688501,20.7797221 175.932311,20.2108033 176.196177,19.674264 C176.459318,19.1379645 176.696604,18.7119949 176.907552,18.3977944 C176.432979,18.162264 175.938352,17.9725444 175.424393,17.8288756 L175.424393,17.8288756 Z M147.442279,33.394033 C147.353357,34.1253287 147.17503,34.8196878 146.908264,35.4780698 C146.641015,36.1347728 146.26938,36.7195216 145.793358,37.2332754 C145.316128,37.7458299 144.716389,38.1180736 143.99414,38.3500063 C143.598825,38.3027563 143.268992,38.1564492 143.005368,37.9130038 C142.740777,37.6683591 142.543119,37.3733464 142.411428,37.0262868 C142.28022,36.6787475 142.219569,36.3007475 142.229476,35.8908477 C142.239625,35.4807081 142.322023,35.0732069 142.478602,34.6676244 C142.781372,33.9348896 143.260777,33.3429454 143.916817,32.8913122 C144.573099,32.4391992 145.278916,32.0734315 146.034752,31.7932893 C146.260923,31.6870368 146.49845,31.6030901 146.746368,31.54025 C146.994528,31.4769302 147.230123,31.4056954 147.453636,31.3265457 C147.534825,31.9726954 147.531442,32.6617779 147.442279,33.394033 L147.442279,33.394033 Z M160.48987,21.5666624 C158.933737,24.0087919 156.711174,25.3447437 156.711174,25.3447437 C156.711174,25.3447437 156.595431,23.961302 158.91054,21.0809708 C161.225408,18.2001599 162.046003,19.124533 160.48987,21.5666624 L160.48987,21.5666624 Z"></path>
                    <path d="M106.843651,23.3695977 C106.843651,23.3695977 103.350326,27.9276637 100.967559,29.8155051 C98.5847914,31.7038261 99.7958684,29.1348173 100.759752,26.7574467 C101.723636,24.3800761 104.670864,19.2626853 104.670864,19.2626853 C105.136979,18.5052462 104.830827,18.2625203 104.149415,17.5861497 C103.468486,16.9097792 102.88107,16.9143363 102.395141,17.7576409 C101.909212,18.6009454 101.486109,18.9396104 101.486109,18.9396104 C101.486109,18.9396104 97.4007775,14.1604048 93.602026,19.7898706 C89.8027912,25.4190964 86.5552103,33.1745723 91.0029947,33.1745723 C92.7758743,33.1745723 93.183755,31.8515723 95.3062811,29.0043401 C97.4288072,26.156868 98.5826166,24.9406003 98.5826166,24.9406003 C98.5826166,24.9406003 95.053772,32.5948604 98.6775794,32.5948604 C102.30187,32.5948604 104.008542,28.6709518 105.715455,26.621453 C107.422368,24.5719543 106.843651,23.3695977 106.843651,23.3695977 L106.843651,23.3695977 Z M92.3858746,30.4978718 C90.8488313,32.2233363 92.2764137,27.7283503 94.5221739,24.0869822 C96.7679341,20.4451345 98.4224123,18.8832462 101.105049,19.4596003 C101.105049,19.4593604 93.9231596,28.7724074 92.3858746,30.4978718 L92.3858746,30.4978718 Z"></path>
                    <path d="M75.4626916,12.989948 C76.5872632,11.342434 79.0442128,7.92148604 79.0442128,7.92148604 C79.877372,7.05443655 80.3995463,6.20753426 79.6016659,5.41483756 C77.7715187,3.59847081 77.5513888,5.2008934 76.0711298,8.3822335 C74.5915957,11.5630939 74.2876183,14.711335 75.4626916,12.989948 L75.4626916,12.989948 Z"></path>
                    <path d="M89.0517881,15.905297 C87.6053581,14.9435076 86.2045972,15.2507525 83.7358074,21.9425038 C83.6695993,22.1667614 83.6355287,22.4298744 83.620064,22.7212893 C83.0309567,23.6298325 81.7887087,25.3195596 79.7575208,27.0414264 C79.7575208,27.0414264 79.2877814,23.2952449 81.0217576,20.4669607 C82.7562172,17.6386764 83.413949,17.2237398 82.1748422,16.2144607 C80.7677987,15.0684683 78.554176,16.314717 77.0927646,21.142132 C75.4566507,23.2726992 72.723995,26.8025381 71.3771188,28.3833744 C69.3812097,30.7266865 68.6019352,30.6427398 69.9995549,26.9126282 C71.3969329,23.1822766 74.4744025,18.2054365 74.4744025,18.2054365 C75.0635098,17.5374607 75.3665207,16.8342272 74.1774325,16.2010292 C72.4927499,15.2843312 72.4183261,15.4210444 69.7939231,20.6072716 C68.8382548,22.0125393 67.28623,24.2064264 65.9055248,25.7575216 C63.7199319,28.2123629 60.7980756,30.8792297 62.4453047,26.0779581 C71.6694978,5.34144416 74.0689381,2.54793782 74.0689381,2.54793782 C74.7525249,1.40626269 74.3214472,1.19879442 73.6960946,0.861568528 C71.3976578,-0.377964467 71.8152039,0.0695913706 70.4506884,3.06696827 L70.4526214,3.06648858 C70.4485136,3.07320431 70.4451307,3.08063959 70.4415062,3.08735533 C70.4149263,3.14563832 70.3919709,3.19816497 70.3641829,3.2586066 C70.1723243,3.67090482 69.8973431,4.18609772 69.5583285,4.79603046 C66.5079221,10.7173909 62.7618472,18.296099 60.2374812,25.1893223 C58.146851,27.5388706 55.0913703,30.3659556 53.0062977,29.6399365 C52.1286776,29.2945558 52.0938821,28.0960368 52.218566,27.1486383 C53.5970964,26.2832678 54.7385825,25.5044822 55.744511,24.681085 C56.1156631,24.4122157 56.5083208,24.0850635 56.9174096,23.6866764 C56.9195844,23.6847576 56.9212758,23.6830787 56.9234505,23.6813997 L56.9222424,23.6821193 C57.2651231,23.3475317 57.6191191,22.9620964 57.9813307,22.5212563 C57.986405,22.5155 57.9912377,22.5102234 57.9963121,22.504467 L57.9958288,22.5035076 C58.2321483,22.2154505 58.4711258,21.9053274 58.7130029,21.5661827 C60.3302693,19.2885888 58.1473343,18.2054365 58.1473343,18.2054365 C54.5902183,15.8040812 50.8165969,18.2227056 49.3791074,26.2974188 C49.3157989,26.6535926 49.2810033,26.9826637 49.2582896,27.2999822 C48.327993,28.0979556 47.2563396,28.9640457 46.496396,29.4130406 C45.6794264,29.8128668 45.0576983,29.4821168 44.9298731,28.8930508 C44.8735721,28.4371003 44.9960813,27.6926129 45.3271219,26.8639391 C46.1407086,24.8482589 46.9704848,22.8392944 47.8459302,20.8499975 C49.9621738,16.0420102 52.1583987,11.2688008 54.2398468,6.44594289 C55.0500506,4.56817513 54.6354041,3.75844924 52.783993,2.84870685 C51.6183434,2.27571066 51.1425631,2.37500761 50.3864857,3.4320165 C45.9464336,9.63519797 41.505415,15.8378997 37.0711622,22.0453985 L37.0711622,22.0449188 C37.0677793,22.0499556 37.0648797,22.0542728 37.0617384,22.0593096 C37.0433741,22.0842538 37.0257347,22.109198 37.0076121,22.1341421 L37.0078537,22.1351015 C35.9794531,23.5900178 35.2559964,24.6441485 34.4126886,25.8325939 C32.2945119,28.3692234 32.1695863,26.5554949 33.153526,24.0646764 C33.7614809,22.5826574 34.3810343,21.1051954 35.0262011,19.6390063 C37.1424447,14.831019 39.3386696,10.0575698 41.4201177,5.23471193 C42.2303215,3.35718401 41.815675,2.54745812 39.9642639,1.63747589 C38.7983727,1.0644797 38.322834,1.16377665 37.5667566,2.22078553 C33.6841576,7.64446193 29.8056664,13.0714962 25.9262086,18.4975711 C25.9262086,18.4975711 25.9262086,18.4975711 25.9257254,18.4970914 C23.8242215,21.4568122 21.6789817,24.3714416 19.4716415,27.2335444 C19.4822735,27.2431383 19.4926638,27.2532119 19.5030541,27.2630457 C18.4446907,28.6344949 17.3648217,29.9934721 16.2547483,31.3347005 C13.5595461,34.589434 10.7089722,37.7019378 7.13421682,40.0541244 C5.06460888,41.4164594 2.8831237,42.4178236 0.0166019208,41.7344975 C0.0166019208,41.7344975 3.63920114,45.0170533 6.62001651,45.0170533 C12.4963499,45.0170533 16.1810495,38.8232259 22.5737579,29.1580825 C23.1568243,28.2895939 23.7275673,27.432618 24.2847788,26.5914721 C24.2903364,26.5825977 24.2961356,26.574203 24.3019349,26.5655685 L24.3016933,26.5655685 C27.5780288,21.614632 30.3524875,17.2268579 32.069066,14.4734061 L32.069066,14.4736459 C33.4442135,12.2538553 34.8365172,11.9758718 33.4579868,14.4736459 C33.4536373,14.4810812 33.4509793,14.4870774 33.4466299,14.4945127 C31.9308505,17.1184467 29.6698672,21.4090825 28.767842,25.0578858 C27.615724,30.4731675 31.1088066,33.3575761 34.8314429,29.2374721 C36.1918507,27.6559162 37.4640615,25.419816 38.5755847,23.4446701 C40.2339291,20.886934 41.8915485,18.3287183 43.5501345,15.7714619 C45.0584232,13.4622081 46.276991,12.4790723 44.54084,16.0995736 C44.5364906,16.1082081 44.5338326,16.1149239 44.5297248,16.1237982 C44.0208404,17.1980761 43.5262126,18.2778706 43.0905438,19.3811701 C42.1539647,21.753264 41.2649877,24.1639734 40.6290031,26.6279289 C40.3177766,27.8338832 40.7024603,29.1782297 41.4744857,30.2877652 C41.6112514,30.4722081 41.7424594,30.6384226 41.8698013,30.7902462 C42.1452658,31.1094835 42.4523845,31.3987398 42.78415,31.6498604 C43.0047632,31.7920901 43.2159526,31.8705203 43.425209,31.8957043 L43.4254506,31.8964239 C43.4264171,31.8964239 43.427867,31.896184 43.4290751,31.896184 C43.5803389,31.9141726 43.7308779,31.9055381 43.8823833,31.8666827 C45.4675121,31.6697678 47.1722505,30.4913959 49.0502415,29.0765343 L49.0504831,29.0767741 C49.1461707,29.0196904 49.2353342,28.9659645 49.3290888,28.9100799 C50.1001477,32.9553515 55.3996971,32.2254949 58.6107911,30.053434 C58.5970179,30.0932487 58.5830031,30.1340228 58.5692298,30.1716789 C58.988709,32.4032221 62.2522379,32.7334924 65.5167333,29.5785355 C65.8608223,29.2461066 66.1986287,28.8803388 66.529186,28.4905863 C66.0505061,31.4946789 67.619687,32.2830584 69.2502433,32.2830584 C70.8194241,32.2830584 72.0582892,29.3319721 74.7423762,26.2578439 C75.384885,25.5219911 75.9471708,24.8408236 76.4340663,24.2268135 C76.4430068,26.539665 76.854512,29.3101459 76.854512,29.3101459 C76.854512,29.3101459 72.2252594,31.7640279 72.2252594,35.2072817 C72.2252594,38.6500558 79.278116,36.4818325 79.7292494,31.8959442 C79.8771303,30.0421612 79.9012939,29.0266459 79.9012939,29.0266459 C79.9012939,29.0266459 82.0663478,27.3913642 83.7469227,24.9262094 C84.1823498,28.8316497 85.2738173,35.0204404 80.9425012,40.7158642 C78.4594549,43.8417995 71.907992,45.039599 69.4848713,38.8457716 C68.6724928,36.5048579 69.2258381,35.2456574 69.2258381,35.2456574 C69.2712655,34.8242449 69.2814142,34.8957195 68.7964518,34.6091015 C68.3114894,34.3220038 67.1100777,34.3325571 67.1100777,37.994552 C67.1100777,41.6560673 70.2204097,45.5147373 75.9708511,45.5147373 C81.7220173,45.5147373 87.6123655,39.2791764 87.1841875,31.2473959 C86.6605634,24.5378959 85.8317536,22.9611371 88.1543539,19.2602868 C89.6582932,17.1659365 89.9480142,16.4094569 89.0517881,15.905297 L89.0517881,15.905297 Z M54.6339543,21.2654137 C56.9493055,18.3848426 57.769658,19.3092157 56.2135255,21.7511053 C54.6571513,24.1929949 52.4348297,25.5291865 52.4348297,25.5291865 C52.4348297,25.5291865 52.3188447,24.1457449 54.6339543,21.2654137 L54.6339543,21.2654137 Z M74.6839004,33.9178604 C75.555238,31.7007081 76.8477462,31.1207563 76.8477462,31.1207563 C76.5795308,33.5259492 74.5973949,34.5774416 74.6839004,33.9178604 L74.6839004,33.9178604 Z"></path>
                </g>
            </g>
        </g>
    </g>
</svg>