<?xml version="1.0" encoding="UTF-8" standalone="no"?>
<svg width="17px" height="22px" viewBox="0 0 17 22" version="1.1" xmlns="http://www.w3.org/2000/svg" xmlns:xlink="http://www.w3.org/1999/xlink">
    <!-- Generator: Sketch 40.3 (33839) - http://www.bohemiancoding.com/sketch -->
    <title>500PX</title>
    <desc>Created with Sketch.</desc>
    <defs></defs>
    <g id="Page-1" stroke="none" stroke-width="1" fill="none" fill-rule="evenodd">
        <g id="01-Home-" transform="translate(-1249.000000, -2982.000000)" fill="#FFFFFF">
            <g id="Footer" transform="translate(103.000000, 2902.039649)">
                <g id="social" transform="translate(1020.000000, 10.000000)">
                    <g id="500PX" transform="translate(126.000000, 70.000000)">
                        <path d="M9.5534,19.4611589 C13.4624,19.4611589 16.6426,16.1917944 16.6426,12.1731963 C16.6426,8.15459813 13.4624,4.88523364 9.5534,4.88523364 C7.6032,4.88523364 5.773,5.7062243 4.455,7.10805607 L4.455,1.23364486 L14.2064,1.23364486 C14.5378,1.23364486 14.8064,0.957514019 14.8064,0.61682243 C14.8064,0.276130841 14.5378,0 14.2064,0 L3.855,0 C3.5236,0 3.255,0.276130841 3.255,0.61682243 L3.255,8.8137757 L3.248,8.96407477 C3.235,9.25130841 3.4166,9.50996262 3.6858,9.58727103 C3.956,9.66478505 4.241,9.54018692 4.3744,9.28770093 C5.4074,7.33299065 7.3918,6.1186729 9.5534,6.1186729 C12.8006,6.1186729 15.4426,8.83454206 15.4426,12.1729907 C15.4426,15.5114393 12.8006,18.2273084 9.5534,18.2273084 C8.4616,18.2273084 7.4248,17.9114953 6.5316,17.3610841 L6.5316,12.1731963 C6.5316,10.4600748 7.8872,9.06646729 9.5534,9.06646729 C11.2196,9.06646729 12.5752,10.4600748 12.5752,12.1731963 C12.5752,13.8863178 11.2196,15.2799252 9.5534,15.2799252 C9.15,15.2799252 8.7586,15.1997383 8.39,15.0414206 C8.0854,14.910243 7.733,15.058486 7.6052,15.3730654 C7.4776,15.6874393 7.622,16.0486916 7.9278,16.1798692 C8.4436,16.4013084 8.9904,16.5135701 9.5534,16.5135701 C11.8814,16.5135701 13.7752,14.5664673 13.7752,12.1731963 C13.7752,9.77992523 11.8812,7.83282243 9.5534,7.83282243 C7.2256,7.83282243 5.3316,9.77992523 5.3316,12.1731963 L5.3316,16.3885607 C4.656,15.6759252 4.1446,14.7899626 3.8754,13.7859813 C3.7874,13.4576262 3.4572,13.2645607 3.1376,13.3552336 C2.818,13.4457009 2.6306,13.7853645 2.7184,14.1137196 C3.5626,17.2623925 6.373,19.4611589 9.5534,19.4611589 L9.5534,19.4611589 Z" id="XMLID_74_"></path>
                        <path d="M5.9478,3.11639252 C5.645,3.25456075 5.5086,3.6191028 5.643,3.93039252 C5.7774,4.24147664 6.1316,4.38231776 6.435,4.24373832 C8.3154,3.3853271 12.0104,2.48846729 15.6224,6.1297757 C15.7392,6.24758879 15.891,6.30618692 16.0426,6.30618692 C16.198,6.30618692 16.3536,6.24450467 16.471,6.12134579 C16.703,5.87811215 16.6994,5.48745794 16.4628,5.24895327 C12.1906,0.942299065 7.686,2.32274766 5.9478,3.11639252 L5.9478,3.11639252 Z" id="XMLID_75_"></path>
                        <path d="M16.6758,17.7437196 C16.4256,17.5204299 16.0466,17.5473645 15.8294,17.8045794 C14.2484,19.6739626 11.9608,20.7462056 9.5534,20.7462056 C5.324,20.7462056 1.7734,17.4937009 1.2944,13.1804673 C1.2568,12.8420374 0.9588,12.5981869 0.6304,12.6376636 C0.3012,12.6763178 0.0646,12.9818505 0.1022,13.320486 C0.6502,18.2571215 4.7134,21.9800561 9.5534,21.9800561 C12.3082,21.9800561 14.9258,20.7531963 16.7348,18.6142617 C16.9522,18.3568411 16.9258,17.967215 16.6758,17.7437196 L16.6758,17.7437196 Z" id="XMLID_76_"></path>
                        <path d="M8.0266,13.6685794 C8.144,13.7909159 8.2988,13.8523925 8.4538,13.8523925 C8.606,13.8523925 8.7582,13.7931776 8.875,13.6747477 L9.4912,13.0501121 L10.0988,13.6833832 C10.2162,13.8057196 10.371,13.8671963 10.526,13.8671963 C10.6782,13.8671963 10.8304,13.8079813 10.9472,13.6895514 C11.1832,13.4502243 11.1858,13.0597757 10.953,12.8171589 L10.3456,12.1838879 L10.9394,11.5820748 C11.1754,11.3427477 11.178,10.9522991 10.9452,10.7096822 C10.7124,10.4670654 10.3324,10.4643925 10.0968,10.703514 L9.503,11.3055327 L8.9174,10.6950841 C8.6846,10.4524673 8.3046,10.4497944 8.069,10.6889159 C7.833,10.928243 7.8304,11.3186916 8.0632,11.5613084 L8.6486,12.1715514 L8.0326,12.7961869 C7.7966,13.035514 7.7938,13.4259626 8.0266,13.6685794 L8.0266,13.6685794 Z" id="XMLID_77_"></path>
                    </g>
                </g>
            </g>
        </g>
    </g>
</svg>