<?xml version="1.0" encoding="UTF-8" standalone="no"?>
<svg width="22px" height="23px" viewBox="0 0 22 23" version="1.1" xmlns="http://www.w3.org/2000/svg" xmlns:xlink="http://www.w3.org/1999/xlink">
    <!-- Generator: Sketch 40.3 (33839) - http://www.bohemiancoding.com/sketch -->
    <title>Shape</title>
    <desc>Created with Sketch.</desc>
    <defs></defs>
    <g id="Page-1" stroke="none" stroke-width="1" fill="none" fill-rule="evenodd">
        <g id="01-Home-" transform="translate(-1194.000000, -2928.000000)" fill="#FFFFFF">
            <g id="Footer" transform="translate(103.000000, 2902.039649)">
                <g id="social" transform="translate(1020.000000, 10.000000)">
                    <g id="dribbble" transform="translate(55.000000, 1.000000)">
                        <path d="M27,15 C20.9345312,15 16,19.9345312 16,26 C16,32.0654687 20.9345312,37 27,37 C33.0654687,37 38,32.0654687 38,26 C38,19.9345312 33.0654687,15 27,15 L27,15 Z M36.625,26.001375 C33.9540625,25.3052813 31.6230937,25.2770938 29.6118125,25.659 C29.3179062,24.9821563 29.01575,24.3290313 28.7094687,23.7065 C30.8204375,22.8577813 32.8196875,21.60825 34.3600312,19.8090625 C35.771125,21.4841563 36.625,23.6435938 36.625,26 L36.625,26.001375 L36.625,26.001375 Z M33.4016562,18.832125 C31.9915937,20.5158125 30.089625,21.6694375 28.0735312,22.4583438 C26.659,19.7774375 25.2778125,17.7606563 24.5133125,16.7125625 C25.3080625,16.4990938 26.13925,16.375 27,16.375 C29.4591875,16.375 31.698375,17.3096562 33.4016562,18.832125 L33.4016562,18.832125 Z M23.1489687,17.1852188 C23.7694375,18.0198438 25.229,20.0795938 26.745625,22.924125 C22.989125,24.09425 19.1435937,24.1568125 17.5623437,24.1210625 C18.1814375,21.0063438 20.3089062,18.430625 23.1489687,17.1852188 L23.1489687,17.1852188 Z M17.375,26 C17.375,25.8301875 17.3925313,25.6648437 17.4004375,25.4970937 C17.6575625,25.5056875 17.9751875,25.5125625 18.3485,25.5125625 C20.357375,25.5125625 23.90625,25.31525 27.3915312,24.1812187 C27.6789062,24.7607812 27.9635313,25.3654375 28.2423125,25.9938125 C23.6205938,27.3842812 20.9445,30.895 19.9273437,32.5047812 C18.3485,30.7898125 17.375,28.5090312 17.375,26 L17.375,26 Z M20.9359063,33.4652187 C21.6880313,32.1565625 24.1424063,28.5210625 28.7689375,27.233375 C29.7029063,29.531 30.5038438,32.0847187 30.950375,34.7676875 C29.743125,35.3135625 28.4086875,35.625 27,35.625 C24.702375,35.625 22.593125,34.8134062 20.9359063,33.4652187 L20.9359063,33.4652187 Z M32.2280938,34.0702188 C31.7667813,31.5271563 31.015,29.1181563 30.146,26.9367188 C31.9709688,26.6472813 34.0857188,26.7290938 36.51225,27.3952813 C36.103875,30.18825 34.49925,32.5938125 32.2280938,34.0702188 L32.2280938,34.0702188 Z" id="Shape"></path>
                    </g>
                </g>
            </g>
        </g>
    </g>
</svg>