<?xml version="1.0" encoding="UTF-8" standalone="no"?>
<svg width="25px" height="20px" viewBox="0 0 25 20" version="1.1" xmlns="http://www.w3.org/2000/svg" xmlns:xlink="http://www.w3.org/1999/xlink">
    <!-- Generator: Sketch 40.3 (33839) - http://www.bohemiancoding.com/sketch -->
    <title>envelope</title>
    <desc>Created with Sketch.</desc>
    <defs></defs>
    <g id="Symbols" stroke="none" stroke-width="1" fill="none" fill-rule="evenodd">
        <g id="Footer" transform="translate(-1200.000000, -81.000000)" fill="#000000">
            <g transform="translate(0.000000, 0.039649)" id="social">
                <g transform="translate(1020.000000, 10.000000)">
                    <g id="envelope" transform="translate(180.000000, 71.000000)">
                        <g id="Capa_1">
                            <g id="Group">
                                <path d="M21.9163223,0.0386178862 L3.05268595,0.0386178862 C1.36880165,0.0386178862 0,1.40311653 0,3.08170732 L0,15.9337398 C0,17.6123306 1.36880165,18.9768293 3.05268595,18.9768293 L21.911157,18.9768293 C23.5950413,18.9768293 24.963843,17.6123306 24.963843,15.9337398 L24.963843,3.08685637 C24.9690083,1.40826558 23.6002066,0.0386178862 21.9163223,0.0386178862 L21.9163223,0.0386178862 Z M23.5743802,15.9337398 C23.5743802,16.845122 22.8305785,17.5865854 21.9163223,17.5865854 L3.05268595,17.5865854 C2.13842975,17.5865854 1.3946281,16.845122 1.3946281,15.9337398 L1.3946281,3.08685637 C1.3946281,2.17547425 2.13842975,1.43401084 3.05268595,1.43401084 L21.911157,1.43401084 C22.8254132,1.43401084 23.5692149,2.17547425 23.5692149,3.08685637 L23.5692149,15.9337398 L23.5743802,15.9337398 L23.5743802,15.9337398 Z" id="Shape"></path>
                                <path d="M15.7438017,9.34810298 L21.8491736,3.8901084 C22.1332645,3.63265583 22.1590909,3.19498645 21.9008264,2.90663957 C21.642562,2.62344173 21.2035124,2.59769648 20.9142562,2.85514905 L12.4948347,10.3882114 L10.8522727,8.92588076 C10.8471074,8.92073171 10.8419421,8.91558266 10.8419421,8.9104336 C10.8057851,8.87439024 10.7696281,8.84349593 10.7283058,8.81260163 L4.04442149,2.85 C3.75516529,2.59254743 3.3161157,2.61829268 3.05785124,2.90663957 C2.79958678,3.19498645 2.82541322,3.63265583 3.11466942,3.8901084 L9.29235537,9.39444444 L3.14049587,15.1356369 C2.86157025,15.3982385 2.84607438,15.8359079 3.10950413,16.1191057 C3.24896694,16.2632791 3.43491736,16.3405149 3.62086777,16.3405149 C3.79132231,16.3405149 3.96177686,16.2787263 4.09607438,16.1551491 L10.3409091,10.3315718 L12.035124,11.8402439 C12.1694215,11.9586721 12.3347107,12.0153117 12.5,12.0153117 C12.6652893,12.0153117 12.8357438,11.953523 12.964876,11.8350949 L14.7055785,10.2800813 L20.9142562,16.1602981 C21.0485537,16.2890244 21.2241736,16.350813 21.3946281,16.350813 C21.5805785,16.350813 21.7613636,16.2787263 21.9008264,16.1345528 C22.1642562,15.8565041 22.1539256,15.4136856 21.875,15.151084 L15.7438017,9.34810298 L15.7438017,9.34810298 Z" id="Shape"></path>
                            </g>
                        </g>
                    </g>
                </g>
            </g>
        </g>
    </g>
</svg>