<?xml version="1.0" encoding="utf-8"?>
<!-- Generator: Adobe Illustrator 16.0.0, SVG Export Plug-In . SVG Version: 6.00 Build 0)  -->
<!DOCTYPE svg PUBLIC "-//W3C//DTD SVG 1.1//EN" "http://www.w3.org/Graphics/SVG/1.1/DTD/svg11.dtd">
<svg version="1.1" id="Layer_1" xmlns="http://www.w3.org/2000/svg" xmlns:xlink="http://www.w3.org/1999/xlink" x="0px" y="0px"
	 width="96.521px" height="55.958px" viewBox="0 0 96.521 55.958" enable-background="new 0 0 96.521 55.958" xml:space="preserve">
<g>
	<path fill="#28A4DE" d="M29.25,0C13.096,0,0,13.096,0,29.25c0,10.047,5.065,18.908,12.783,24.176
		c3.813-3.486,7.533-7.163,11.222-10.926c-3.188-1.771-5.369-5.129-5.47-9.01h14.146c6.57-6.909,13.18-13.91,20.167-20.518
		C47.061,4.292,38.939,0,29.25,0z M18.536,22.833c0.149-5.736,4.837-10.344,10.61-10.344c5.774,0,10.461,4.607,10.611,10.344H18.536
		z"/>
	<polygon fill="#28A4DE" points="76.542,1.208 95.708,1.208 75.542,22.375 96.522,55.958 75.542,55.958 63.116,34.407 
		58.459,38.812 58.458,55.958 41.458,55.958 41.458,38.5 	"/>
</g>
</svg>
