<?xml version="1.0" encoding="utf-8"?>
<!-- Generator: Adobe Illustrator 16.0.0, SVG Export Plug-In . SVG Version: 6.00 Build 0)  -->
<!DOCTYPE svg PUBLIC "-//W3C//DTD SVG 1.1//EN" "http://www.w3.org/Graphics/SVG/1.1/DTD/svg11.dtd">
<svg version="1.1" id="Layer_1" xmlns="http://www.w3.org/2000/svg" xmlns:xlink="http://www.w3.org/1999/xlink" x="0px" y="0px"
	 width="657.599px" height="439.622px" viewBox="0 0 657.599 439.622" enable-background="new 0 0 657.599 439.622"
	 xml:space="preserve">
<path d="M574.9,4.6c-97.779-23.475-184.036,50.532-184.036,50.532c21.897,18.521,36.733,41.445,36.733,41.445
	c114.848-90.356,197.844-26.159,142.349,39.76c-44.553,52.911-120.325,53.136-163.671-13.25
	C371.218,69.392,292.49,1.789,226.938,67.42c-70.473,70.539-106.214,101.4-152.027,96.03
	c-80.673-9.448-101.674,109.143-35.873,189.186c52.632,64.008,168.309,102.992,265.352,80.635
	c110.741-25.544,108.525-107.028,159.428-91.752c79.095,23.728,149.951-35.202,175.46-113.244
	C671.867,128.546,667.003,26.705,574.9,4.6 M386.36,244.596c12.61,12.611,12.61,33.148,0,45.776
	c-12.629,12.61-33.167,12.61-45.786,0l-3.262-3.278l-3.279,3.278c-12.615,12.61-33.156,12.61-45.775,0
	c-12.615-12.628-12.615-33.165,0-45.776l3.274-3.278l-3.274-3.262c-12.615-12.628-12.615-33.17,0-45.781
	c12.619-12.621,33.16-12.621,45.775,0l3.279,3.27l3.262-3.27c12.619-12.621,33.157-12.621,45.786,0
	c12.61,12.61,12.61,33.152,0,45.781l-3.279,3.262L386.36,244.596z"/>
<path d="M337.304,215.289c-14.375,0-26.027,11.652-26.027,26.029c0,14.376,11.652,26.031,26.027,26.031
	c14.386,0,26.033-11.655,26.033-26.031C363.337,226.941,351.689,215.289,337.304,215.289"/>
</svg>
