<?xml version="1.0" encoding="UTF-8" standalone="no"?>
<svg width="19px" height="16px" viewBox="0 0 19 16" version="1.1" xmlns="http://www.w3.org/2000/svg" xmlns:xlink="http://www.w3.org/1999/xlink">
    <!-- Generator: Sketch 40.3 (33839) - http://www.bohemiancoding.com/sketch -->
    <title>Path</title>
    <desc>Created with Sketch.</desc>
    <defs></defs>
    <g id="Symbols" stroke="none" stroke-width="1" fill="none" fill-rule="evenodd">
        <g id="Footer" transform="translate(-1037.000000, -29.000000)" fill="#000000">
            <g transform="translate(0.000000, 0.039649)" id="social">
                <g transform="translate(1020.000000, 10.000000)">
                    <path d="M33.6954375,22.7606875 L33.7070625,23.25475 C33.7070625,28.3 29.868875,34.1125 22.8493125,34.1125 C20.6948125,34.1125 18.6895,33.480875 17,32.3978125 C17.298375,32.4326875 17.6025625,32.4520625 17.910625,32.4520625 C19.6989375,32.4520625 21.343875,31.84175 22.64975,30.81875 C20.979625,30.78775 19.5710625,29.683375 19.08475,28.16825 C19.3191875,28.2128125 19.5555625,28.234125 19.8035625,28.234125 C20.1523125,28.234125 20.4894375,28.1895625 20.809125,28.102375 C19.0634375,27.74975 17.747875,26.2094375 17.747875,24.3610625 L17.747875,24.312625 C18.26325,24.599375 18.8503125,24.769875 19.476125,24.7911875 C18.453125,24.10725 17.778875,22.9389375 17.778875,21.615625 C17.778875,20.9161875 17.9668125,20.2613125 18.29425,19.6975 C20.1755625,22.007 22.9888125,23.526 26.1605,23.684875 C26.094625,23.405875 26.0616875,23.1133125 26.0616875,22.8149375 C26.0616875,20.708875 27.7705625,19 29.8785625,19 C30.9751875,19 31.9671875,19.4630625 32.6646875,20.205125 C33.5326875,20.0326875 34.3503125,19.7149375 35.0885,19.279 C34.8036875,20.17025 34.1991875,20.918125 33.410625,21.390875 C34.1798125,21.2998125 34.918,21.0925 35.6019375,20.79025 C35.0904375,21.553625 34.441375,22.2259375 33.6954375,22.7606875 L33.6954375,22.7606875 L33.6954375,22.7606875 Z" id="Path"></path>
                </g>
            </g>
        </g>
    </g>
</svg>