<?xml version="1.0" encoding="UTF-8" standalone="no"?>
<svg width="288px" height="288px" viewBox="0 0 288 288" version="1.1" xmlns="http://www.w3.org/2000/svg" xmlns:xlink="http://www.w3.org/1999/xlink">
    <!-- Generator: Sketch 41.2 (35397) - http://www.bohemiancoding.com/sketch -->
    <title>Exposure Logo + Word Mark Lockup Alt</title>
    <desc>Created with Sketch.</desc>
    <defs></defs>
    <g id="Page-1" stroke="none" stroke-width="1" fill="none" fill-rule="evenodd">
        <g id="Exposure-Logo-+-Word-Mark-Lockup-Alt" fill="#FFFFFF">
            <g id="Light">
                <g id="Exposure-Logo-+-Word-Mark-Lockup-Alt">
                    <path d="M233.877466,229.533233 C233.038607,231.5879 231.371542,233.2559 229.319667,234.0959 L177.731189,255.4879 L206.104586,206.2919 L255.255048,177.8919 L233.877466,229.533233 Z M53.714586,229.533233 L32.347656,177.897233 L81.504776,206.297233 L109.883499,255.498567 L58.284368,234.0959 C56.231162,233.2559 54.565428,231.5879 53.714586,229.533233 L53.714586,229.533233 Z M53.725238,58.3399 C54.565428,56.286567 56.231162,54.617233 58.284368,53.766567 L109.883499,32.3799 L81.504776,81.582567 L32.34233,109.9879 L53.725238,58.3399 Z M233.877466,58.3399 L255.255048,109.9879 L206.104586,81.582567 L177.725863,32.3799 L229.319667,53.778567 C231.371542,54.617233 233.038607,56.286567 233.877466,58.3399 L233.877466,58.3399 Z M208.673091,182.674567 L208.673091,182.538567 L208.673091,105.334567 L208.673091,105.198567 L264.989803,137.757233 C266.587629,138.677233 267.47176,139.902567 267.960428,141.054567 C268.634178,142.938567 268.640836,144.9359 267.97108,146.8079 C267.483743,147.965233 266.599613,149.197233 264.989803,150.1279 L208.673091,182.674567 Z M189.511162,182.538567 C189.511162,186.477233 186.302194,189.6879 182.368879,189.6879 L105.235156,189.6879 C101.30051,189.6879 98.091542,186.477233 98.091542,182.538567 L98.091542,105.334567 C98.091542,101.397233 101.30051,98.185233 105.235156,98.185233 L182.368879,98.185233 C186.302194,98.185233 189.511162,101.397233 189.511162,105.334567 L189.511162,182.538567 Z M105.099341,79.005233 L137.628417,22.637233 C138.545836,21.037233 139.770836,20.1519 140.92127,19.6639 C142.798716,18.994567 144.793336,18.994567 146.670781,19.653233 C147.826542,20.141233 149.056868,21.026567 149.98627,22.637233 L182.504694,79.005233 L182.368879,79.005233 L105.235156,79.005233 L105.099341,79.005233 Z M19.643607,146.818567 C18.968526,144.941233 18.9632,142.938567 19.631624,141.065233 C20.118961,139.913233 21.004423,138.682567 22.614232,137.757233 L78.930944,105.198567 L78.930944,105.334567 L78.930944,182.538567 L78.930944,182.674567 L22.624885,150.138567 C21.015075,149.2079 20.130944,147.970567 19.643607,146.818567 L19.643607,146.818567 Z M182.504694,208.8679 L149.998254,265.2239 C149.068852,266.8359 147.831868,267.721233 146.681433,268.209233 C144.815971,268.8839 142.821352,268.8959 140.933254,268.2199 C139.782819,267.7319 138.552493,266.8479 137.628417,265.2359 L105.099341,208.8679 L105.235156,208.8679 L182.368879,208.8679 L182.504694,208.8679 Z M287.585727,144.8959 C287.608363,144.254567 287.61502,143.641233 287.592385,142.9999 C287.495183,140.209233 286.899993,137.5639 285.993227,135.0399 C285.805482,134.489233 251.588037,51.009233 251.588037,51.009233 C248.798499,44.290567 243.356569,38.8439 236.644368,36.062567 C236.644368,36.062567 153.212548,1.790567 152.662629,1.597233 C150.144721,0.701233 147.514966,0.110567 144.737412,0.014567 C144.090292,-0.0081 143.46714,-0.002767 142.814694,0.0199 C140.059776,0.122567 137.452656,0.706567 134.952058,1.597233 C134.396814,1.790567 50.959667,36.0519 50.959667,36.0519 C44.247466,38.8439 38.804205,44.290567 36.026651,51.009233 C36.026651,51.009233 1.785238,134.517233 1.593499,135.073233 C0.697385,137.593233 0.112846,140.2199 0.016977,142.994567 C-0.005659,143.6359 -0.005659,144.249233 0.016977,144.8959 C0.119504,147.670567 0.708037,150.297233 1.604151,152.822567 C1.797221,153.373233 36.015999,236.8639 36.015999,236.8639 C38.804205,243.582567 44.247466,249.030567 50.959667,251.810567 C50.959667,251.810567 134.396814,286.082567 134.952058,286.2759 C137.452656,287.166567 140.065102,287.7519 142.821352,287.853233 C143.150238,287.865233 144.419178,287.870567 144.737412,287.858567 C147.525618,287.762567 150.167357,287.166567 152.695917,286.258567 C153.24051,286.0719 236.644368,251.821233 236.644368,251.821233 C243.356569,249.030567 248.798499,243.582567 251.576053,236.8639 C251.576053,236.8639 285.817466,153.345233 286.010537,152.7879 C286.905319,150.2799 287.484531,147.658567 287.585727,144.8959 L287.585727,144.8959 Z" id="Logo-Mark"></path>
                </g>
            </g>
        </g>
    </g>
</svg>